<?xml version="1.0" encoding="UTF-8"?>
<svg width="1000" height="420" viewBox="0 0 1000 420" xmlns="http://www.w3.org/2000/svg">
  <defs>
    <marker id="arrow" markerWidth="10" markerHeight="7" refX="10" refY="3.5" orient="auto">
      <polygon points="0 0, 10 3.5, 0 7" fill="#333" />
    </marker>
    <style>
      .box { fill: #f7fbff; stroke: #2b6cb0; stroke-width: 2; rx: 6; }
      .title { font: 14px 'Segoe UI', Roboto, Arial; fill: #0b3d91; font-weight: 700; }
      .label { font: 12px 'Segoe UI', Roboto, Arial; fill: #102a43; }
      .lane { stroke: #cbd5e1; stroke-width: 1; }
      .note { font: 11px 'Segoe UI', Roboto, Arial; fill: #1f2937; }
    </style>
  </defs>

  <!-- Lanes -->
  <line x1="200" y1="40" x2="200" y2="380" class="lane" />
  <line x1="430" y1="40" x2="430" y2="380" class="lane" />
  <line x1="660" y1="40" x2="660" y2="380" class="lane" />

  <!-- Participants -->
  <g transform="translate(20,20)">
    <rect class="box" x="0" y="10" width="160" height="40" />
    <text x="80" y="35" class="title" text-anchor="middle">Browser</text>
    <text x="80" y="52" class="label" text-anchor="middle">User agent</text>
  </g>

  <g transform="translate(230,20)">
    <rect class="box" x="0" y="10" width="180" height="40" />
    <text x="90" y="35" class="title" text-anchor="middle">React SPA</text>
    <text x="90" y="52" class="label" text-anchor="middle">Client (PKCE)</text>
  </g>

  <g transform="translate(460,20)">
    <rect class="box" x="0" y="10" width="180" height="40" />
    <text x="90" y="35" class="title" text-anchor="middle">Authorization Server</text>
    <text x="90" y="52" class="label" text-anchor="middle">/oauth2/* endpoints</text>
  </g>

  <g transform="translate(690,20)">
    <rect class="box" x="0" y="10" width="200" height="40" />
    <text x="100" y="35" class="title" text-anchor="middle">JDBC DB</text>
    <text x="100" y="52" class="label" text-anchor="middle">H2: registered_client, authorization</text>
  </g>

  <g transform="translate(230,120)">
    <rect class="box" x="0" y="10" width="420" height="40" />
    <text x="210" y="35" class="title" text-anchor="middle">Resource Server / App</text>
    <text x="210" y="52" class="label" text-anchor="middle">/user (validates JWT with JWKs)</text>
  </g>

  <!-- Arrows & labels -->
  <g stroke="#333" stroke-width="2" fill="none" marker-end="url(#arrow)">
    <!-- Browser -> React SPA -->
    <line x1="90" y1="60" x2="230" y2="60" />
    <text x="160" y="50" class="note" text-anchor="middle">click "Login with OAuth2"</text>

    <!-- React SPA -> Authorization Server (authorize request with PKCE) -->
    <line x1="410" y1="60" x2="460" y2="60" />
    <line x1="410" y1="60" x2="460" y2="60" marker-end="url(#arrow)" />
    <text x="435" y="50" class="note" text-anchor="middle">Redirect /oauth2/authorize (code_challenge)</text>

    <!-- Authorization Server -> Browser (login form) -->
    <line x1="540" y1="90" x2="110" y2="120" marker-end="url(#arrow)" />
    <text x="325" y="95" class="note" text-anchor="middle">Show login & consent</text>

    <!-- Browser -> Authorization Server (submit credentials -> consent approve) -->
    <line x1="110" y1="140" x2="540" y2="140" marker-end="url(#arrow)" />
    <text x="325" y="130" class="note" text-anchor="middle">POST credentials / consent</text>

    <!-- Authorization Server -> Browser (redirect with code) -->
    <line x1="640" y1="160" x2="230" y2="160" marker-end="url(#arrow)" />
    <text x="435" y="150" class="note" text-anchor="middle">302 Redirect with authorization code</text>

    <!-- React SPA -> Authorization Server (token exchange with PKCE verifier) -->
    <line x1="410" y1="190" x2="460" y2="190" marker-end="url(#arrow)" />
    <text x="435" y="180" class="note" text-anchor="middle">POST /oauth2/token (code + verifier)</text>

    <!-- Authorization Server -> React SPA (tokens) -->
    <line x1="640" y1="190" x2="410" y2="190" marker-end="url(#arrow)" />
    <text x="525" y="180" class="note" text-anchor="middle">Return access_token (JWT), id_token</text>

    <!-- Authorization Server -> JDBC DB (persist authorization) -->
    <line x1="630" y1="210" x2="790" y2="240" marker-end="url(#arrow)" />
    <text x="710" y="210" class="note" text-anchor="middle">Persist authorization (JdbcOAuth2AuthorizationService)</text>

    <!-- React SPA -> Resource Server (/user) -->
    <line x1="440" y1="240" x2="440" y2="300" marker-end="url(#arrow)" />
    <text x="380" y="270" class="note" text-anchor="middle">GET /user (Bearer access_token)</text>

    <!-- Resource Server -> JWKs (validate token) -->
    <line x1="520" y1="300" x2="740" y2="140" marker-end="url(#arrow)" />
    <text x="650" y="270" class="note" text-anchor="middle">Validate JWT with /oauth2/jwks</text>
  </g>

  <!-- Footer note -->
  <text x="20" y="400" class="label">Generated sequence diagram: Authorization Code + PKCE flow, token issuance and DB persistence.</text>
</svg>
